<svg width="61" height="59" viewBox="0 0 61 59" fill="none" xmlns="http://www.w3.org/2000/svg">
<path id="Vector" d="M27.1998 57.5312L5.67109 34.799C5.1707 34.2734 4.69414 33.7075 4.25332 33.1281H14.6186C17.3111 33.1281 19.7416 31.2955 20.7781 28.4792L22.0291 25.0835L27.9027 39.8386C28.3555 40.984 29.3443 41.7251 30.4523 41.7386C31.5604 41.7521 32.573 41.0648 33.0734 39.9464L38.125 28.5062L38.3275 28.9643C39.4594 31.5246 41.7707 33.1415 44.2965 33.1415H56.7467C56.3059 33.721 55.8293 34.2869 55.3289 34.8124L33.8002 57.5312C32.9066 58.4745 31.7271 59 30.5 59C29.2729 59 28.0934 58.4745 27.1998 57.5312ZM60.0111 26.6601H44.2846C43.9272 26.6601 43.5936 26.431 43.4268 26.0672L40.6627 19.8283C40.1742 18.7368 39.1853 18.0361 38.1012 18.0361C37.017 18.0361 36.0281 18.7233 35.5396 19.8283L30.6072 30.9856L24.5311 15.6376C24.0664 14.4653 23.018 13.7107 21.8861 13.7376C20.7543 13.7646 19.7297 14.5326 19.2889 15.7319L15.5002 26.0133C15.3572 26.4175 14.9998 26.6736 14.6186 26.6736H1.90625C1.59648 26.6736 1.31055 26.7275 1.03652 26.8218C0.357422 24.6658 0 22.3751 0 20.0439V19.2623C0 9.84334 6.0166 1.81226 14.2254 0.262641C19.6582 -0.761456 25.1863 1.24631 29.0703 5.63915L30.5 7.25615L31.9297 5.63915C35.8137 1.24631 41.3418 -0.761456 46.7746 0.262641C54.9834 1.81226 61 9.84334 61 19.2623V20.0439C61 22.3212 60.6664 24.558 60.0111 26.6601Z" fill="#D91106"/>
</svg>
